# xmcd
#
# Track frame offsets:
#	150
#	11112
#	23200
#	36937
#	46425
#	59162
#	73512
#	85662
#	97362
#	109800
#	119787
#	132687
#	143500
#	154450
#	166562
#	180587
#	194175
#
# Disc length: 2775 seconds
#
# Revision: 1
# Processed by: cddbd v1.5.2PL0 Copyright (c) Steve Scherf et al.
# Submitted via: audiograbber 1.83.01
#
DISCID=040ad511
DTITLE=Bill Pursell - Our Winter Love
DYEAR=1997
DGENRE=Oldies
TTITLE0=Our Winter Love
TTITLE1=There'll Be No Teardrops Tonight
TTITLE2=Four Walls
TTITLE3=A Wound Time Can't Erase
TTITLE4=Born To Lose
TTITLE5=Loved
TTITLE6=Stranger
TTITLE7=I Walk The Line
TTITLE8=Love Can't Wait
TTITLE9=Bye Bye Love
TTITLE10=I Can't Help It (If I'm Still In Love With You)
TTITLE11=Dark Alley
TTITLE12=Farewell To Adra
TTITLE13=Pride
TTITLE14=Autumn Magic
TTITLE15=The Theme From Captain Newman (Blue Grotto)
TTITLE16=Crying
EXTD=
EXTT0=
EXTT1=
EXTT2=
EXTT3=
EXTT4=
EXTT5=
EXTT6=
EXTT7=
EXTT8=
EXTT9=
EXTT10=
EXTT11=
EXTT12=
EXTT13=
EXTT14=
EXTT15=
EXTT16=
PLAYORDER=
